<svg xmlns="http://www.w3.org/2000/svg" viewBox="0 0 860.34 131.86"><defs><style>.cls-1{fill:#fff;}</style></defs><title>Asset 10</title><g id="Layer_2" data-name="Layer 2"><g id="Layer_1-2" data-name="Layer 1"><rect class="cls-1" x="526.81" width="333.53" height="131.86" rx="15.4"/><path class="cls-1" d="M97.12,103C92,120.23,79.27,133.26,56.31,133.26c-31.18,0-47.62-24.83-47.62-55.39,0-29.32,16.13-56,47.78-56,23.43,0,37.23,13,40.8,31.18H88.89C83.93,38.93,74.78,29.63,56,29.63c-27,0-38.31,24.66-38.31,48.09,0,23.27,11.17,47.78,38.93,47.78,17.69,0,26.69-9.15,32.12-22.5Z" transform="translate(-8.69 -10.24)"/><path class="cls-1" d="M210.2,76.94c0,29.63-15.82,56.63-49.33,56.63-30.56,0-48.4-24.67-48.4-55.85,0-30.72,17.22-55.85,49.49-55.85C191.74,21.87,210.2,45.29,210.2,76.94Zm-88.73.31c0,25,13.8,48.56,39.87,48.56,28.08,0,39.87-23,39.87-48.71,0-25.29-13.35-47.47-39.56-47.47C133.72,29.63,121.47,52.74,121.47,77.25Z" transform="translate(-8.69 -10.24)"/><path class="cls-1" d="M242.16,23.42V89.2c0,28.85,16.28,36.3,31.64,36.3,18.15,0,31.65-7.6,31.65-36.3V23.42H314V88.73c0,34-18,44.53-40.49,44.53-21.41,0-40-11.64-40-43.13V23.42Z" transform="translate(-8.69 -10.24)"/><path class="cls-1" d="M352.29,81.29V132h-8.53V23.42H382.7c21.41,0,32.74,11.48,32.74,28.54,0,13.81-8.23,22.81-20.33,25.45,11.17,2.63,18.62,9.93,18.62,28.39V110c0,7.6-.62,17.84,1.4,22h-8.54c-2-4.66-1.55-13.35-1.55-22.65v-2.8c0-17.84-5.27-25.28-26.06-25.28Zm0-7.76h26.22c19.08,0,27.93-7.14,27.93-21.41,0-13.34-8.69-20.94-25.6-20.94H352.29Z" transform="translate(-8.69 -10.24)"/><path class="cls-1" d="M442,102.85c3.26,14.43,12.87,23,30.72,23,19.85,0,27.45-9.93,27.45-21.72,0-12.25-5.43-19.86-29.32-25.75-23-5.74-32.89-13.19-32.89-28.86,0-14.27,10.4-27.61,33.67-27.61,23.89,0,34,14.58,35.37,27.77h-8.69c-2.48-11.64-10.08-20-27.15-20-15.67,0-24.2,7.29-24.2,19.39,0,11.94,7.14,16.6,27.15,21.56,30.56,7.6,35.06,19.86,35.06,32.89,0,16-11.63,29.79-36.77,29.79-27.14,0-37.07-15.83-39.09-30.41Z" transform="translate(-8.69 -10.24)"/><path d="M580.64,43.5H558.22V27.05H621.9V43.5H599.47V132H580.64Z" transform="translate(-8.69 -10.24)"/><path d="M684.06,85.36H650.37v30.48h37.82L685.88,132H631.82v-105h53.83V43.5H650.37V69.05h33.69Z" transform="translate(-8.69 -10.24)"/><path d="M761.42,101.46c-.46,5.3-2.48,32.36-31.6,32.36-29.84,0-33.27-26.22-33.27-54.43,0-34,10-54,34.39-54,27.84,0,30,23.87,30.43,32.27H742.78c-.3-3.57-.54-16.33-12.13-16.33-11.8,0-14.67,14.44-14.67,38.47,0,19.79,2,38.37,14.15,38.37,11.2,0,12.1-12.68,12.56-16.7Z" transform="translate(-8.69 -10.24)"/><path d="M774.23,27.05h18.82V68.54h25.3V27.05h18.82V132H818.35V84.85h-25.3V132H774.23Z" transform="translate(-8.69 -10.24)"/></g></g></svg>